<?xml version="1.0" encoding="UTF-8"?>
<svg xmlns="http://www.w3.org/2000/svg" xmlns:xlink="http://www.w3.org/1999/xlink" width="18pt" height="20pt" viewBox="0 0 18 20" version="1.1">
<g id="surface1">
<path style=" stroke:none;fill-rule:nonzero;fill:rgb(0%,0%,0%);fill-opacity:1;" d="M 1.5 1.527344 L 1.367188 1.617188 L 1.367188 9.390625 C 1.367188 16.847656 1.371094 17.171875 1.476562 17.261719 C 1.582031 17.351562 1.90625 17.363281 4.828125 17.363281 L 8.070312 17.363281 L 8.230469 17.613281 C 8.472656 17.980469 9.160156 18.652344 9.578125 18.925781 C 10.875 19.773438 12.414062 19.964844 13.914062 19.449219 C 14.550781 19.234375 15.007812 18.96875 15.554688 18.480469 C 17.132812 17.070312 17.550781 14.878906 16.597656 13.058594 C 15.988281 11.898438 14.953125 11.054688 13.644531 10.65625 C 13.535156 10.625 13.53125 10.4375 13.53125 7.714844 L 13.53125 4.804688 L 11.773438 3.121094 L 10.023438 1.433594 L 5.835938 1.433594 C 2.140625 1.433594 1.625 1.445312 1.5 1.527344 Z M 9.558594 3.566406 C 9.558594 4.753906 9.578125 5.007812 9.65625 5.121094 C 9.75 5.25 9.769531 5.25 11.300781 5.25 L 12.847656 5.25 L 12.847656 10.496094 L 12.523438 10.457031 C 11.804688 10.394531 10.5625 10.6875 9.820312 11.105469 C 9.359375 11.367188 8.410156 12.285156 8.136719 12.726562 C 7.429688 13.890625 7.261719 15.445312 7.726562 16.597656 C 7.773438 16.699219 7.609375 16.707031 4.910156 16.707031 L 2.046875 16.707031 L 2.046875 2.148438 L 9.558594 2.148438 Z M 11.328125 3.640625 L 12.320312 4.59375 L 10.304688 4.59375 L 10.304688 3.640625 C 10.304688 3.113281 10.308594 2.683594 10.320312 2.683594 C 10.328125 2.683594 10.78125 3.113281 11.328125 3.640625 Z M 13.171875 11.222656 C 13.347656 11.261719 13.765625 11.410156 14.089844 11.554688 C 14.578125 11.785156 14.765625 11.910156 15.179688 12.316406 C 15.597656 12.714844 15.734375 12.894531 15.96875 13.367188 C 16.292969 14.011719 16.386719 14.414062 16.386719 15.148438 C 16.386719 15.789062 16.257812 16.28125 15.984375 16.839844 C 15.460938 17.851562 14.511719 18.617188 13.40625 18.914062 C 12.828125 19.070312 11.816406 19.082031 11.261719 18.945312 C 9.777344 18.574219 8.601562 17.410156 8.25 15.945312 C 8.144531 15.519531 8.160156 14.589844 8.277344 14.140625 C 8.65625 12.730469 9.84375 11.589844 11.261719 11.253906 C 11.714844 11.152344 12.71875 11.132812 13.171875 11.222656 Z M 13.171875 11.222656 "/>
<path style=" stroke:none;fill-rule:nonzero;fill:rgb(0%,0%,0%);fill-opacity:1;" d="M 3.257812 6.230469 C 3.171875 6.347656 3.171875 6.402344 3.234375 6.515625 C 3.277344 6.589844 3.339844 6.667969 3.378906 6.695312 C 3.414062 6.71875 5.238281 6.742188 7.4375 6.742188 C 11.335938 6.742188 11.417969 6.742188 11.542969 6.625 C 11.699219 6.472656 11.707031 6.3125 11.558594 6.1875 C 11.453125 6.097656 11.074219 6.085938 7.398438 6.085938 L 3.351562 6.085938 Z M 3.257812 6.230469 "/>
<path style=" stroke:none;fill-rule:nonzero;fill:rgb(0%,0%,0%);fill-opacity:1;" d="M 3.328125 8.015625 C 3.265625 8.058594 3.214844 8.167969 3.214844 8.253906 C 3.214844 8.609375 2.992188 8.589844 7.417969 8.589844 C 11.261719 8.589844 11.46875 8.585938 11.5625 8.484375 C 11.699219 8.339844 11.691406 8.15625 11.558594 8.035156 C 11.453125 7.945312 11.078125 7.9375 7.441406 7.9375 C 4.207031 7.9375 3.414062 7.953125 3.328125 8.015625 Z M 3.328125 8.015625 "/>
<path style=" stroke:none;fill-rule:nonzero;fill:rgb(0%,0%,0%);fill-opacity:1;" d="M 3.378906 9.65625 C 3.339844 9.675781 3.277344 9.753906 3.234375 9.832031 C 3.171875 9.949219 3.171875 10 3.257812 10.121094 L 3.351562 10.261719 L 10.117188 10.261719 L 10.207031 10.121094 C 10.320312 9.957031 10.253906 9.707031 10.085938 9.640625 C 9.941406 9.589844 3.457031 9.597656 3.378906 9.65625 Z M 3.378906 9.65625 "/>
<path style=" stroke:none;fill-rule:nonzero;fill:rgb(0%,0%,0%);fill-opacity:1;" d="M 3.296875 11.433594 C 3.132812 11.628906 3.132812 11.648438 3.28125 11.820312 L 3.402344 11.964844 L 7.773438 11.964844 L 7.890625 11.820312 C 8.039062 11.648438 8.039062 11.628906 7.875 11.433594 L 7.75 11.277344 L 3.421875 11.277344 Z M 3.296875 11.433594 "/>
<path style=" stroke:none;fill-rule:nonzero;fill:rgb(0%,0%,0%);fill-opacity:1;" d="M 3.320312 13.097656 C 3.234375 13.175781 3.164062 13.269531 3.164062 13.304688 C 3.164062 13.339844 3.234375 13.4375 3.320312 13.515625 L 3.46875 13.660156 L 4.980469 13.660156 C 6.660156 13.660156 6.785156 13.640625 6.816406 13.324219 C 6.851562 12.972656 6.746094 12.945312 5.007812 12.945312 L 3.46875 12.945312 Z M 3.320312 13.097656 "/>
<path style=" stroke:none;fill-rule:nonzero;fill:rgb(0%,0%,0%);fill-opacity:1;" d="M 13.070312 14.707031 L 11.835938 16.109375 L 11.613281 15.949219 C 11.488281 15.859375 11.113281 15.578125 10.78125 15.324219 C 10.445312 15.066406 10.132812 14.855469 10.097656 14.855469 C 9.929688 14.855469 9.746094 15.050781 9.746094 15.207031 C 9.746094 15.34375 9.886719 15.480469 10.734375 16.125 C 11.417969 16.660156 11.765625 16.886719 11.878906 16.886719 C 12.046875 16.886719 12.136719 16.796875 13.925781 14.769531 C 14.394531 14.242188 14.789062 13.753906 14.808594 13.675781 C 14.859375 13.496094 14.679688 13.304688 14.46875 13.304688 C 14.328125 13.304688 14.097656 13.542969 13.070312 14.707031 Z M 13.070312 14.707031 "/>
</g>
</svg>
